<svg xmlns="http://www.w3.org/2000/svg" version="1.1" xmlns:xlink="http://www.w3.org/1999/xlink" xmlns:svgjs="http://svgjs.dev/svgjs" width="2000" height="414" viewBox="0 0 2000 414"><g transform="matrix(1,0,0,1,-1.2121212121212466,-1.0391048668817007)"><svg viewBox="0 0 396 82" data-background-color="#07101d" preserveAspectRatio="xMidYMid meet" height="414" width="2000" xmlns="http://www.w3.org/2000/svg" xmlns:xlink="http://www.w3.org/1999/xlink"><g id="tight-bounds" transform="matrix(1,0,0,1,0.2400000000000091,0.20581304126642408)"><svg viewBox="0 0 395.52 81.58837391746712" height="81.58837391746712" width="395.52"><g><svg viewBox="0 0 521.4630636523174 107.56807094815238" height="81.58837391746712" width="395.52"><g transform="matrix(1,0,0,1,0,14.866498951589804)"><svg viewBox="0 0 395.52 77.83507304497277" height="77.83507304497277" width="395.52"><g id="textblocktransform"><svg viewBox="0 0 395.52 77.83507304497277" height="77.83507304497277" width="395.52" id="textblock"><g><svg viewBox="0 0 395.52 77.83507304497277" height="77.83507304497277" width="395.52"><g transform="matrix(1,0,0,1,0,0)"><svg width="395.52" viewBox="3.5 -33.95 173.28 34.35" height="77.83507304497277" data-palette-color="#ff3c00"><g class="wordmark-text-0" data-fill-palette-color="primary" id="text-0"><path d="M3.5 0L3.5-33.85 9.45-33.85 9.45 0 3.5 0ZM27.35-19.7Q26.45-19.7 25.55-19.25 24.65-18.8 23.95-18.03 23.25-17.25 22.8-16.15 22.35-15.05 22.35-13.7L22.35-13.7 22.35 0 16.65 0 16.65-12.6Q16.65-15.6 16.25-17.63 15.85-19.65 15.4-20.9L15.4-20.9Q14.85-22.35 14.2-23.25L14.2-23.25 18.7-25.05Q19.15-24.5 19.65-23.7L19.65-23.7Q20.05-23 20.45-22.05 20.85-21.1 21.1-19.8L21.1-19.8Q22.1-22.7 24-23.98 25.9-25.25 28.3-25.25L28.3-25.25Q29.45-25.25 30.45-24.98 31.45-24.7 31.4-24.7L31.4-24.7 29.8-19.15Q29.85-19.15 29.22-19.43 28.6-19.7 27.35-19.7L27.35-19.7ZM54.75-23.85L54.75-12.05Q54.75-9.05 55.12-7.03 55.5-5 55.95-3.75L55.95-3.75Q56.5-2.25 57.14-1.4L57.14-1.4 52.7 0.4Q52.05-0.25 51.5-1.15L51.5-1.15Q51.05-1.95 50.64-3.08 50.25-4.2 50.14-5.75L50.14-5.75Q49.3-2.75 47.42-1.23 45.55 0.3 42.34 0.3L42.34 0.3Q39.99 0.3 38.27-0.58 36.55-1.45 35.39-3.08 34.24-4.7 33.7-7 33.14-9.3 33.14-12.1L33.14-12.1Q33.14-14.95 34.02-17.38 34.89-19.8 36.47-21.55 38.05-23.3 40.24-24.3 42.45-25.3 45.09-25.3L45.09-25.3Q46.59-25.3 48.22-25.08 49.84-24.85 51.25-24.6 52.64-24.35 53.62-24.13 54.59-23.9 54.75-23.85L54.75-23.85ZM43.3-3.7Q44.55-3.7 45.59-4.55 46.64-5.4 47.42-6.78 48.2-8.15 48.62-9.93 49.05-11.7 49.05-13.55L49.05-13.55 49.05-20.75Q48.55-20.9 47.55-21.1 46.55-21.3 45.75-21.3L45.75-21.3Q43.84-21.3 42.62-20.65 41.39-20 40.64-18.85 39.89-17.7 39.59-16.1 39.3-14.5 39.3-12.6L39.3-12.6Q39.3-10.85 39.39-9.25 39.49-7.65 39.92-6.4 40.34-5.15 41.14-4.42 41.95-3.7 43.3-3.7L43.3-3.7ZM82.59 0L76.94 0 76.94-16.15Q76.94-18.25 76.19-19.53 75.44-20.8 73.64-20.8L73.64-20.8Q72.49-20.8 71.42-20.23 70.34-19.65 69.49-18.55 68.64-17.45 68.12-15.88 67.59-14.3 67.59-12.35L67.59-12.35 67.59 0 61.89 0 61.89-12.6Q61.89-15.6 61.49-17.63 61.09-19.65 60.64-20.9L60.64-20.9Q60.09-22.35 59.44-23.25L59.44-23.25 63.94-25.05Q64.44-24.5 64.94-23.7L64.94-23.7Q65.34-23 65.74-21.98 66.14-20.95 66.39-19.65L66.39-19.65Q67.69-22.65 70.14-23.98 72.59-25.3 75.29-25.3L75.29-25.3Q79.14-25.3 80.87-22.98 82.59-20.65 82.59-16.7L82.59-16.7 82.59 0Z" fill="#ff3c00" data-fill-palette-color="primary"></path><path d="M118.99-16.15L118.84-33.85 124.79-33.85 124.79 0.05 119.84 0.05 108.44-17.75Q107.49-19.2 106.36-21.03 105.24-22.85 104.24-24.4L104.24-24.4Q104.39-22.8 104.51-21.05 104.64-19.3 104.64-17.7L104.64-17.7 104.79 0 98.84 0 98.84-33.95 103.49-33.95 115.24-16.35Q116.24-14.9 117.26-13.28 118.29-11.65 119.29-10.15L119.29-10.15Q119.19-11.75 119.09-13.38 118.99-15 118.99-16.15L118.99-16.15ZM131.79 0L131.79-33.85 151.89-33.85 151.89-29.35 137.74-29.35 137.74-19.6 149.39-19.6 148.64-15.1 137.74-15.1 137.74 0 131.79 0ZM153.18-33.85L176.78-33.85 176.03-29.35 167.63-29.35 167.63 0 161.73 0 161.73-29.35 153.18-29.35 153.18-33.85Z" fill="#fe5e30" data-fill-palette-color="secondary"></path></g></svg></g></svg></g></svg></g></svg></g><g transform="matrix(1,0,0,1,413.89499270416496,0)"><svg viewBox="0 0 107.56807094815238 107.56807094815238" height="107.56807094815238" width="107.56807094815238"><g data-palette-color="#949494"><rect width="29.401939392494985" height="107.56807094815238" fill="#949494" stroke="transparent" data-fill-palette-color="accent" x="0" fill-opacity="1"></rect><rect width="29.401939392494985" height="107.56807094815238" fill="#949494" stroke="transparent" data-fill-palette-color="accent" x="35.85602364938413" fill-opacity="0.75"></rect><rect width="29.401939392494985" height="107.56807094815238" fill="#949494" stroke="transparent" data-fill-palette-color="accent" x="71.71204729876825" fill-opacity="0.5"></rect></g></svg></g></svg></g><defs></defs></svg><rect width="395.52" height="81.58837391746712" fill="none" stroke="none" visibility="hidden"></rect></g></svg></g></svg>