<svg width="30" height="100%" viewBox="0 0 30 26" fill="none" transform="scale(3)" xmlns="http://www.w3.org/2000/svg">
<path d="M14.9998 25.8694C14.5865 25.8694 14.1865 25.8161 13.8532 25.6961C8.75984 23.9494 0.666504 17.7494 0.666504 8.58939C0.666504 3.92273 4.43984 0.136059 9.07984 0.136059C11.3332 0.136059 13.4398 1.01606 14.9998 2.58939C15.7743 1.80788 16.6966 1.18843 17.7131 0.767214C18.7295 0.345994 19.8196 0.131436 20.9198 0.136059C25.5598 0.136059 29.3332 3.93606 29.3332 8.58939C29.3332 17.7627 21.2398 23.9494 16.1465 25.6961C15.8132 25.8161 15.4132 25.8694 14.9998 25.8694ZM9.07984 2.13606C5.5465 2.13606 2.6665 5.02939 2.6665 8.58939C2.6665 17.6961 11.4265 22.7627 14.5065 23.8161C14.7465 23.8961 15.2665 23.8961 15.5065 23.8161C18.5732 22.7627 27.3465 17.7094 27.3465 8.58939C27.3465 5.02939 24.4665 2.13606 20.9332 2.13606C18.9065 2.13606 17.0265 3.08273 15.8132 4.72273C15.4398 5.22939 14.5865 5.22939 14.2132 4.72273C13.6207 3.91883 12.8472 3.26575 11.9554 2.81637C11.0636 2.36698 10.0785 2.13392 9.07984 2.13606Z" fill="white"/>
</svg>
