<svg width="63" height="31" viewBox="0 0 63 31" fill="none" xmlns="http://www.w3.org/2000/svg">
<path d="M22.5167 29.7825C21.7802 29.864 21.0358 29.8373 20.307 29.7033C19.5327 29.5631 18.7932 29.2728 18.1302 28.8488C17.4922 28.4435 16.9293 27.9305 16.4665 27.3328C15.9921 26.7575 15.6152 26.1083 15.3507 25.4111C14.8325 24.0232 14.7458 22.5112 15.1019 21.0732C15.4102 19.8178 15.9199 18.6207 16.6113 17.5284C17.8999 15.5193 19.5065 13.7329 21.3682 12.2391C21.8272 11.8721 22.3038 11.5094 22.8079 11.1675C23.3121 10.8256 23.8493 10.5385 24.3645 10.2274C25.4166 9.67847 26.5084 9.2091 27.6306 8.82318C30.8511 7.71063 34.2505 7.20726 37.6553 7.33876C39.1586 7.42356 40.6515 7.64076 42.1166 7.98784C42.4837 8.08779 42.8518 8.16467 43.2145 8.2822L44.306 8.64028L45.4187 9.12019C45.786 9.29481 46.126 9.52332 46.4779 9.72214C47.8535 10.6008 49.007 11.7858 49.8483 13.1845C50.6634 14.5507 51.1868 16.0709 51.3856 17.6493C51.5881 19.187 51.5184 20.7484 51.1795 22.262C51.0085 23.0309 50.7727 23.7839 50.4745 24.513C50.3219 24.867 50.1582 25.2277 49.9944 25.551C49.8074 25.9072 49.5978 26.2511 49.3671 26.5807C48.4738 27.8945 47.2871 28.9826 45.9009 29.7589C45.1168 30.1939 44.2307 30.4114 43.3343 30.3891C42.3657 30.3337 41.4522 29.9203 40.7712 29.2293C40.2081 28.6481 39.8128 27.9252 39.6274 27.1375C39.4566 26.4347 39.3824 25.7119 39.407 24.9891C39.4462 23.6059 39.7342 22.241 40.2572 20.9598C41.2631 18.3941 43.1325 16.2597 45.5433 14.9245C48.6471 13.1847 52.364 12.9162 55.6856 14.1919C56.0937 14.3462 56.489 14.5327 56.8677 14.7496C57.254 14.9531 57.6279 15.1794 57.9875 15.4271C58.7084 15.9228 59.3525 16.5218 59.8991 17.2048C60.9237 18.5302 61.7021 20.0286 62.1972 21.629C62.5207 22.5856 62.5758 23.0236 62.4759 23.0316C62.376 23.0395 62.0849 22.6319 61.5712 21.9548C60.8845 21.046 60.1132 20.2045 59.2676 19.4414C58.7431 18.9841 58.1798 18.5735 57.5839 18.2142C56.9577 17.8172 56.293 17.4844 55.6 17.2208C55.2939 17.0831 54.9765 16.9719 54.6514 16.8886C54.4924 16.83 54.3283 16.7864 54.1612 16.7583C54.0784 16.7379 53.9938 16.7264 53.9086 16.7239L53.6624 16.6631C53.3352 16.5891 53.0028 16.5398 52.6682 16.5156C52.3338 16.474 51.9964 16.4625 51.66 16.4812C50.3224 16.5193 49.0059 16.8237 47.7874 17.3765C45.3019 18.4084 43.4168 20.5095 42.6595 23.0919C42.4861 23.7326 42.3816 24.39 42.3479 25.0529C42.3046 25.607 42.3647 26.1642 42.5251 26.6963C42.6204 27.0179 42.838 27.2894 43.1313 27.4522C43.4804 27.5909 43.8713 27.5794 44.2117 27.4205C45.3936 26.8872 46.4053 26.038 47.1354 24.9664C47.2393 24.8289 47.3202 24.6903 47.4153 24.5505C47.5015 24.416 47.5796 24.2764 47.6491 24.1325C47.7865 23.8027 47.9623 23.487 48.0689 23.1309C48.3292 22.4816 48.5265 21.8089 48.6582 21.1219C48.8014 20.2709 48.8365 19.4052 48.7626 18.5454C48.6765 17.691 48.4723 16.8527 48.1558 16.0544C47.682 14.8721 46.9354 13.8184 45.9769 12.9795C45.8194 12.8427 45.6412 12.7334 45.4728 12.6032C45.3074 12.4715 45.1299 12.3558 44.9425 12.2578C43.3344 11.4238 41.579 10.9112 39.7748 10.7488C37.8965 10.5431 36.0021 10.5317 34.1216 10.7149C29.9763 11.1092 25.9017 12.4257 22.868 15.1557C21.2993 16.4596 19.9667 18.0236 18.9283 19.7793C18.4538 20.5986 18.1379 21.5 17.9972 22.4362C17.8819 23.2805 18.0505 24.1391 18.4766 24.877C18.9765 25.795 19.8461 26.4545 20.8648 26.6885C21.9954 26.8467 23.1477 26.6708 24.1796 26.1824C26.5089 25.1449 28.5754 23.5976 30.2268 21.6547C31.4437 20.1469 32.4112 18.4539 33.0925 16.64C33.8126 14.8853 34.1029 12.9839 33.9393 11.0942C33.7477 9.30375 32.8044 7.67898 31.3445 6.62484C29.7938 5.56264 28.0097 4.8902 26.1436 4.66459C23.1794 4.2916 20.1694 4.57715 17.3282 5.50087C16.6173 5.7113 15.9179 5.95894 15.233 6.24275C14.5453 6.516 13.883 6.85616 13.2097 7.16561C11.9039 7.85688 10.6542 8.6492 9.47204 9.53533L8.68747 10.1065C8.41891 10.2687 8.19897 10.5362 7.97117 10.7411L7.25269 11.3845L6.5728 12.0794L5.94213 12.7072C5.75714 12.9087 5.59521 13.1112 5.42667 13.3027C5.10053 13.6793 4.75774 13.991 4.50286 14.3245C3.99195 14.9772 3.50801 15.464 3.15676 15.8856C2.63457 16.5467 1.98063 17.0919 1.23646 17.4868C0.968329 17.6437 0.690753 17.7839 0.405321 17.9065C0.0147111 18.0153 -0.0712056 17.551 0.0740388 16.5282C0.112311 16.2389 0.172034 15.9528 0.252716 15.6723C0.363846 15.3733 0.49245 15.0413 0.645147 14.6872C1.00769 13.8564 1.45037 13.0629 1.96691 12.318C3.67587 9.78101 5.85264 7.59292 8.38075 5.87083C10.9517 4.07279 13.808 2.72193 16.8289 1.87526C19.9627 0.971572 23.2523 0.741123 26.4815 1.19905C28.1796 1.44565 29.8309 1.94609 31.3802 2.6836C32.2036 3.09179 32.9802 3.58843 33.6961 4.16475C34.4446 4.78352 35.1034 5.50337 35.6537 6.30363C36.4569 7.5106 36.9788 8.88257 37.1809 10.3182C37.3563 11.6462 37.3273 12.9932 37.0948 14.3123C36.6317 16.7548 35.7108 19.0877 34.3807 21.1879C34.066 21.7071 33.7216 22.2144 33.3617 22.7085C32.988 23.2271 32.5823 23.7219 32.1472 24.1901C31.3051 25.0689 30.4018 25.8869 29.4442 26.6381C28.4746 27.4027 27.4332 28.0718 26.3347 28.6359C25.1464 29.2618 23.8589 29.6775 22.529 29.8648L22.5167 29.7825Z" fill="white" fill-opacity="0.5"/>
</svg>
