<svg width="60" height="60" viewBox="0 0 81 81" fill="none" xmlns="http://www.w3.org/2000/svg">
<rect width="81" height="81" rx="40" fill="url(#paint0_linear_310_290)"/>
<path d="M27.4802 49C27.7002 48.02 27.3002 46.62 26.6002 45.92L21.7402 41.06C20.2202 39.54 19.6202 37.92 20.0602 36.52C20.5202 35.12 21.9402 34.16 24.0602 33.8L30.3002 32.76C31.2002 32.6 32.3002 31.8 32.7202 30.98L36.1602 24.08C37.1602 22.1 38.5202 21 40.0002 21C41.4802 21 42.8402 22.1 43.8402 24.08L47.2802 30.98C47.5402 31.5 48.0802 32 48.6602 32.34L27.1202 53.88C26.8402 54.16 26.3602 53.9 26.4402 53.5L27.4802 49ZM53.4002 45.924C52.6802 46.644 52.2802 48.024 52.5202 49.004L53.9002 55.024C54.4802 57.524 54.1202 59.404 52.8802 60.304C52.3535 60.6721 51.7226 60.8614 51.0802 60.844C50.0602 60.844 48.8602 60.464 47.5402 59.684L41.6802 56.204C40.7602 55.664 39.2402 55.664 38.3202 56.204L32.4602 59.684C30.2402 60.984 28.3402 61.204 27.1202 60.304C26.6602 59.964 26.3202 59.504 26.1002 58.904L50.4202 34.584C51.3402 33.664 52.6402 33.244 53.9002 33.464L55.9202 33.804C58.0402 34.164 59.4602 35.124 59.9202 36.524C60.3602 37.924 59.7602 39.544 58.2402 41.064L53.4002 45.924Z" fill="white"/>
<defs>
<linearGradient id="paint0_linear_310_290" x1="87.75" y1="40.5" x2="0.273569" y2="40.3008" gradientUnits="userSpaceOnUse">
<stop stop-color="#F44A15"/>
<stop offset="0.525918" stop-color="#FC0606" stop-opacity="0.903404"/>
<stop offset="1" stop-color="#8212F1" stop-opacity="0.81"/>
</linearGradient>
</defs>
</svg>
