<svg width="60" height="60" viewBox="0 0 81 81" fill="none" xmlns="http://www.w3.org/2000/svg">
<rect width="81" height="81" rx="40" fill="url(#paint0_linear_141_38)"/>
<path d="M59.9999 38.9399V43.0599C59.9999 44.1599 59.1199 45.0599 57.9999 45.0999H54.0799C51.92 45.0999 49.9399 43.5199 49.7599 41.3599C49.6399 40.0999 50.1199 38.9199 50.9599 38.0999C51.6999 37.3399 52.7199 36.8999 53.8399 36.8999H57.9999C59.1199 36.9399 59.9999 37.8399 59.9999 38.9399Z" fill="white"/>
<path d="M56.94 48.1H54.08C50.28 48.1 47.08 45.24 46.76 41.6C46.58 39.52 47.34 37.44 48.86 35.96C50.14 34.64 51.92 33.9 53.84 33.9H56.94C57.52 33.9 58 33.42 57.94 32.84C57.5 27.98 54.28 24.66 49.5 24.1C49.02 24.02 48.52 24 48 24H30C29.44 24 28.9 24.04 28.38 24.12C23.28 24.76 20 28.56 20 34V48C20 53.52 24.48 58 30 58H48C53.6 58 57.46 54.5 57.94 49.16C57.9513 49.023 57.9336 48.8852 57.8881 48.7556C57.8427 48.6259 57.7704 48.5072 57.6761 48.4072C57.5818 48.3073 57.4676 48.2283 57.3407 48.1753C57.2139 48.1224 57.0774 48.0967 56.94 48.1ZM42 36.5H30C29.18 36.5 28.5 35.82 28.5 35C28.5 34.18 29.18 33.5 30 33.5H42C42.82 33.5 43.5 34.18 43.5 35C43.5 35.82 42.82 36.5 42 36.5Z" fill="white"/>
<defs>
<linearGradient id="paint0_linear_141_38" x1="87.75" y1="40.5" x2="0.273569" y2="40.3008" gradientUnits="userSpaceOnUse">
<stop offset="0.140625" stop-color="#FF640D"/>
<stop offset="0.255208" stop-color="#FE4C0B" stop-opacity="0.975119"/>
<stop offset="0.484375" stop-color="#FC0606" stop-opacity="0.903404"/>
<stop offset="0.958333" stop-color="#8212F1" stop-opacity="0.81"/>
</linearGradient>
</defs>
</svg>
